HIERARCHY
ROOT Pelvis
{
	OFFSET -0.001795 -0.223333 0.028219
	CHANNELS 6 Xposition Yposition Zposition Zrotation Yrotation Xrotation 
	JOINT Left_hip
	{
		OFFSET 0.069520 -0.091406 -0.006815
		CHANNELS 3 Zrotation Yrotation Xrotation
		JOINT Left_knee
		{
			OFFSET 0.034277 -0.375199 -0.004496
			CHANNELS 3 Zrotation Yrotation Xrotation
			JOINT Left_ankle
			{
				OFFSET -0.013596 -0.397960 -0.043693
				CHANNELS 3 Zrotation Yrotation Xrotation
				JOINT Left_foot
				{
					OFFSET 0.026358 -0.055791 0.119288
					CHANNELS 3 Zrotation Yrotation Xrotation
					End Site
					{
						OFFSET 0.000000 0.000000 0.000000
					}
				}
			}
		}
	}
	JOINT Right_hip
	{
		OFFSET -0.067670 -0.090522 -0.004320
		CHANNELS 3 Zrotation Yrotation Xrotation
		JOINT Right_knee
		{
			OFFSET -0.038290 -0.382569 -0.008850
			CHANNELS 3 Zrotation Yrotation Xrotation
			JOINT Right_ankle
			{
				OFFSET 0.015774 -0.398415 -0.042312
				CHANNELS 3 Zrotation Yrotation Xrotation
				JOINT Right_foot
				{
					OFFSET -0.025372 -0.048144 0.123348
					CHANNELS 3 Zrotation Yrotation Xrotation
					End Site
					{
						OFFSET 0.000000 0.000000 0.000000
					}
				}
			}
		}
	}
	JOINT Spine1
	{
		OFFSET -0.002533 0.108963 -0.026696
		CHANNELS 3 Zrotation Yrotation Xrotation
		JOINT Spine2
		{
			OFFSET 0.005487 0.135180 0.001092
			CHANNELS 3 Zrotation Yrotation Xrotation
			JOINT Spine3
			{
				OFFSET 0.001457 0.052922 0.025425
				CHANNELS 3 Zrotation Yrotation Xrotation
				JOINT Neck
				{
					OFFSET -0.002778 0.213870 -0.042857
					CHANNELS 3 Zrotation Yrotation Xrotation
					JOINT Head
					{
						OFFSET 0.005152 0.064970 0.051349
						CHANNELS 3 Zrotation Yrotation Xrotation
						End Site
						{
							OFFSET 0.000000 0.000000 0.000000
						}
					}
				}
				JOINT Left_collar
				{
					OFFSET 0.078845 0.121749 -0.034090
					CHANNELS 3 Zrotation Yrotation Xrotation
					JOINT Left_shoulder
					{
						OFFSET 0.090977 0.030469 -0.008868
						CHANNELS 3 Zrotation Yrotation Xrotation
						JOINT Left_elbow
						{
							OFFSET 0.259612 -0.012772 -0.027456
							CHANNELS 3 Zrotation Yrotation Xrotation
							JOINT Left_wrist
							{
								OFFSET 0.249234 0.008986 -0.001171
								CHANNELS 3 Zrotation Yrotation Xrotation
								JOINT Left_palm
								{
									OFFSET 0.084042 -0.008162 -0.014945
									CHANNELS 3 Zrotation Yrotation Xrotation
									End Site
									{
										OFFSET 0.000000 0.000000 0.000000
									}
								}
							}
						}
					}
				}
				JOINT Right_collar
				{
					OFFSET -0.081759 0.118833 -0.038615
					CHANNELS 3 Zrotation Yrotation Xrotation
					JOINT Right_shoulder
					{
						OFFSET -0.096012 0.032551 -0.009143
						CHANNELS 3 Zrotation Yrotation Xrotation
						JOINT Right_elbow
						{
							OFFSET -0.253742 -0.013329 -0.021401
							CHANNELS 3 Zrotation Yrotation Xrotation
							JOINT Right_wrist
							{
								OFFSET -0.255298 0.007772 -0.005559
								CHANNELS 3 Zrotation Yrotation Xrotation
								JOINT Right_palm
								{
									OFFSET -0.084622 -0.006117 -0.010315
									CHANNELS 3 Zrotation Yrotation Xrotation
									End Site
									{
										OFFSET 0.000000 0.000000 0.000000
									}
								}
							}
						}
					}
				}
			}
		}
	}
}
MOTION
Frames: 9
Frame Time: 0.016667
-0.066148 0.637087 0.014358 -10.578993 -28.453850 9.018635 53.019745 27.407469 -23.072739 -6.861293 3.521514 76.731819 -13.678309 12.787410 -8.174627 8.503065 4.291116 -19.682510 -14.355471 -13.450145 -63.853336 8.381882 0.542786 66.468269 20.726240 -2.786918 -7.130384 -43.605049 -11.134325 -12.371331 -7.655752 -7.011522 38.346943 -8.694992 -6.375907 -15.869394 -0.168218 0.237502 4.482670 -14.681048 -7.683681 4.280136 21.421751 2.511474 -27.132530 35.614235 -22.216589 -26.100872 9.805314 -28.917564 -38.289814 80.678421 -49.177765 -62.131264 -1.849868 -2.681851 8.367705 0.000000 0.000000 0.000000 -50.224842 25.272343 -21.231602 -28.019222 21.331518 -50.298199 -1.677581 75.436951 31.880964 14.617599 0.803500 17.714743 0.000000 0.000000 0.000000 
-0.067275 0.637561 0.014783 -10.753877 -28.638905 9.258966 53.137276 27.429329 -22.817457 -6.868363 3.421332 76.467369 -13.670483 12.740745 -8.371644 8.299829 4.367929 -19.751780 -14.027451 -13.347480 -64.057899 8.446783 0.588045 66.552025 20.524904 -2.638875 -7.552623 -43.367924 -11.361292 -12.094221 -7.754635 -7.056873 38.446579 -8.702242 -6.445644 -15.903354 -0.189761 0.142308 4.351451 -14.759007 -7.581552 4.331219 21.474155 2.299069 -27.344187 35.686707 -21.966932 -26.027485 9.507518 -28.695904 -38.044041 82.163445 -49.450893 -63.480232 -1.859639 -2.714320 8.467731 0.000000 0.000000 0.000000 -50.377796 25.049219 -21.223337 -28.006296 21.183393 -50.256439 -2.097132 76.412674 31.518114 14.569554 1.074391 17.327000 0.000000 0.000000 0.000000 
-0.068297 0.637893 0.015285 -11.004926 -28.838686 9.532148 53.313957 27.394966 -22.534630 -6.892741 3.340664 76.201035 -13.546925 12.808471 -8.522905 7.997668 4.494127 -19.844231 -13.752879 -13.174893 -64.214905 8.616189 0.557220 66.577797 20.168367 -2.526235 -7.922444 -43.067459 -11.559175 -11.810760 -7.869496 -7.131380 38.486393 -8.654769 -6.545002 -15.941442 -0.177971 0.029464 4.244523 -14.821366 -7.407868 4.436947 21.447470 2.187850 -27.767351 35.784290 -21.746384 -25.935032 9.097079 -28.324442 -37.748165 83.641624 -49.643978 -64.896523 -1.944132 -2.831728 8.506965 0.000000 0.000000 0.000000 -50.499031 24.872051 -21.131708 -27.940119 20.975094 -50.178780 -2.086706 77.259758 31.571800 14.573689 1.409061 16.993767 0.000000 0.000000 0.000000 
-0.069168 0.637685 0.015854 -11.287770 -29.045761 9.783005 53.512486 27.286066 -22.264090 -6.917802 3.249548 76.018288 -13.345286 12.983959 -8.633498 7.635442 4.606816 -19.943110 -13.551353 -12.974030 -64.338722 8.841084 0.449631 66.612343 19.789768 -2.485921 -8.224267 -42.736134 -11.689117 -11.568914 -7.986601 -7.231784 38.475006 -8.590972 -6.655465 -16.025303 -0.136578 -0.072665 4.242068 -14.848433 -7.238094 4.591811 21.372391 2.177021 -28.239983 35.856461 -21.531567 -25.821476 8.660200 -27.915537 -37.415806 84.895210 -49.755394 -66.071480 -2.021926 -2.998856 8.472399 0.000000 0.000000 0.000000 -50.526676 24.701870 -20.955074 -27.851614 20.719355 -50.100510 -1.663977 77.951004 32.071102 14.589773 1.723493 16.782244 0.000000 0.000000 0.000000 
-0.069972 0.636781 0.016418 -11.557318 -29.253494 9.955692 53.695507 27.084862 -22.045782 -6.927037 3.118205 76.004562 -13.102918 13.260283 -8.708204 7.252345 4.643397 -20.030748 -13.442168 -12.786387 -64.444313 9.072248 0.264221 66.722298 19.522411 -2.553060 -8.441696 -42.406120 -11.711410 -11.416020 -8.092163 -7.354813 38.420979 -8.549146 -6.758510 -16.196442 -0.069564 -0.135951 4.424325 -14.820921 -7.147876 4.790556 21.278999 2.266342 -28.600382 35.852913 -21.298922 -25.685162 8.280196 -27.582453 -37.056904 85.705139 -49.796574 -66.695305 -2.011326 -3.180484 8.350538 0.000000 0.000000 0.000000 -50.399162 24.499071 -20.692186 -27.771297 20.429058 -50.056568 -0.882006 78.457474 33.009624 14.578906 1.933233 16.759226 0.000000 0.000000 0.000000 
-0.070727 0.635492 0.017016 -11.803471 -29.474102 10.048570 53.896839 26.835814 -21.817480 -6.900607 3.006132 76.087769 -12.890246 13.556275 -8.723856 6.915849 4.650989 -20.097971 -13.376811 -12.610038 -64.499847 9.294039 0.060923 66.863541 19.333088 -2.620418 -8.672897 -42.094566 -11.649292 -11.309590 -8.192071 -7.486583 38.356152 -8.491448 -6.823759 -16.409847 -0.015879 -0.185116 4.708436 -14.759440 -7.026038 4.957088 21.117823 2.406163 -28.882168 35.772644 -21.032066 -25.494913 7.932167 -27.281832 -36.742302 86.243340 -49.825821 -66.955101 -1.954632 -3.337137 8.225216 0.000000 0.000000 0.000000 -50.153088 24.316591 -20.412863 -27.681669 20.140493 -50.039417 -0.396255 78.814003 33.671249 14.521855 2.035107 16.798185 0.000000 0.000000 0.000000 
-0.071517 0.634446 0.017648 -12.016124 -29.719753 10.060005 54.150169 26.582729 -21.517010 -6.818267 2.972669 76.195793 -12.777608 13.790606 -8.658511 6.693232 4.676938 -20.136168 -13.306675 -12.442927 -64.473167 9.491298 -0.099912 66.992500 19.187843 -2.581812 -9.016837 -41.818832 -11.526423 -11.207435 -8.292368 -7.613106 38.312347 -8.380440 -6.820656 -16.620474 -0.014395 -0.244379 5.011571 -14.684385 -6.761129 5.015398 20.840042 2.546388 -29.119028 35.615215 -20.714375 -25.219908 7.591401 -26.970837 -36.543724 86.686028 -49.893082 -67.042358 -1.894774 -3.429550 8.180622 0.000000 0.000000 0.000000 -49.823738 24.207949 -20.185747 -27.565294 19.889919 -50.041592 -0.941806 79.059685 33.260319 14.398354 2.025903 16.772720 0.000000 0.000000 0.000000 
-0.072299 0.633563 0.018291 -12.187395 -29.974815 10.029508 54.426895 26.374983 -21.199490 -6.724599 2.988676 76.329239 -12.724667 13.960035 -8.505828 6.545680 4.689159 -20.166658 -13.225043 -12.309216 -64.417305 9.633843 -0.226490 67.107887 19.082941 -2.483725 -9.383867 -41.585026 -11.386144 -11.120604 -8.376457 -7.708473 38.258545 -8.256408 -6.773172 -16.739748 -0.031473 -0.292226 5.248790 -14.604723 -6.384303 4.998569 20.505480 2.662393 -29.292450 35.441471 -20.378645 -24.920332 7.290670 -26.670891 -36.418476 87.094536 -49.955040 -67.076729 -1.827477 -3.491501 8.153391 0.000000 0.000000 0.000000 -49.465900 24.132627 -19.997911 -27.440901 19.676250 -50.096218 -2.234360 79.163048 32.097267 14.240677 1.953136 16.790417 0.000000 0.000000 0.000000 
-0.073036 0.632783 0.018933 -12.309656 -30.223347 9.996547 54.699852 26.262625 -20.918758 -6.664241 3.025187 76.488701 -12.691237 14.061424 -8.259044 6.434421 4.655342 -20.210609 -13.125542 -12.232943 -64.385277 9.691442 -0.326914 67.208405 19.015278 -2.372231 -9.684050 -41.399349 -11.271710 -11.060562 -8.427679 -7.746827 38.163589 -8.159237 -6.705867 -16.679232 -0.033187 -0.307500 5.335082 -14.529517 -5.926773 4.939536 20.174160 2.730349 -29.383331 35.310921 -20.058487 -24.655121 7.062881 -26.403053 -36.323433 87.529732 -49.967010 -67.177109 -1.748181 -3.556619 8.080061 0.000000 0.000000 0.000000 -49.134926 24.050402 -19.836855 -27.326986 19.498531 -50.236195 -3.904100 79.090950 30.588020 14.080881 1.864871 16.958714 0.000000 0.000000 0.000000 
